<svg height="511pt" viewBox="1 -79 511.999 511" width="511pt" xmlns="http://www.w3.org/2000/svg"><path d="m397.242188 353.601562h97.101562c9.75 0 17.65625-7.902343 17.65625-17.652343v-317.792969c0-9.753906-7.90625-17.65625-17.65625-17.65625h-476.6875c-9.753906 0-17.65625 7.90625-17.65625 17.65625v317.792969c0 9.75 7.902344 17.652343 17.65625 17.652343zm0 0" fill="#c03a2b"/><path d="m317.792969 274.15625c-1.9375 0-3.824219-.640625-5.363281-1.820312l-56.429688-43.144532-56.429688 43.144532c-3.097656 2.371093-7.382812 2.425781-10.542968.136718-3.160156-2.289062-4.441406-6.378906-3.152344-10.058594l23.976562-68.515624-47.488281-36.320313c-3.007812-2.296875-4.214843-6.257813-3-9.839844 1.214844-3.585937 4.578125-5.996093 8.359375-5.996093h60.386719l19.558594-55.878907c1.238281-3.542969 4.578125-5.914062 8.332031-5.914062s7.09375 2.371093 8.332031 5.914062l19.558594 55.878907h60.386719c3.78125 0 7.144531 2.410156 8.359375 5.996093 1.210937 3.582031.007812 7.542969-3 9.839844l-47.488281 36.320313 23.976562 68.515624c.945312 2.699219.523438 5.6875-1.132812 8.019532-1.65625 2.332031-4.339844 3.722656-7.199219 3.722656zm-47.261719-56.078125 29.179688 22.308594-12.324219-35.207031zm-45.917969-12.898437-12.324219 35.207031 29.179688-22.308594zm6.132813-17.53125 25.253906 19.308593 25.253906-19.308593-9.886718-28.25h-30.734376zm59.324218-28.25 5.9375 16.964843 22.191407-16.964843zm-96.269531 0 22.191407 16.964843 5.941406-16.964843zm53.015625-17.65625h18.371094l-9.1875-26.242188zm0 0" fill="#4fba6f"/></svg>