<svg height="511pt" viewBox="1 -79 511.999 511" width="511pt" xmlns="http://www.w3.org/2000/svg"><path d="m397.242188 353.601562h97.101562c9.75 0 17.65625-7.902343 17.65625-17.652343v-317.792969c0-9.753906-7.90625-17.65625-17.65625-17.65625h-476.6875c-9.753906 0-17.65625 7.90625-17.65625 17.65625v317.792969c0 9.75 7.902344 17.652343 17.65625 17.652343zm0 0" fill="#4c8056"/><path d="m158.898438.5v353.101562h-141.242188c-9.742188-.027343-17.6289062-7.914062-17.65625-17.652343v-317.792969c.0273438-9.742188 7.914062-17.628906 17.65625-17.65625zm0 0" fill="#4c8056"/><path d="m158.898438.5h194.207031v353.101562h-194.207031zm0 0" fill="#e6e7e8"/></svg>